<svg xmlns="http://www.w3.org/2000/svg" viewBox="0 0 64 64" role="img" aria-labelledby="title">
  <title id="title">Skainet Workshop</title>
  <rect width="64" height="64" rx="15" fill="#101827"/>
  <path d="M18 19 32 10l14 9v26L32 54 18 45V19Z" fill="#c89b3c"/>
  <path d="M22 21.5 32 15l10 6.5v21L32 49l-10-6.5v-21Z" fill="#172235"/>
  <path d="M37.6 23.8c-1.5-1.2-3.5-1.8-5.7-1.8-4.4 0-7.4 2.2-7.4 5.6 0 3.1 2.2 4.6 6.5 5.7 2.8.7 3.8 1.4 3.8 2.6 0 1.3-1.2 2.1-3.1 2.1-2.2 0-4.1-.9-5.7-2.5l-2.2 3.1c1.8 1.9 4.5 3.1 7.8 3.1 4.8 0 7.8-2.3 7.8-6.1 0-3.4-2.1-4.9-6.8-6.1-2.7-.7-3.6-1.3-3.6-2.4 0-1.1 1-1.8 2.7-1.8 1.8 0 3.4.7 4.8 1.9l2.1-2.4Z" fill="#f8e6ae"/>
  <path d="m49 8 1.6 4.4L55 14l-4.4 1.6L49 20l-1.6-4.4L43 14l4.4-1.6L49 8Z" fill="#f8e6ae"/>
</svg>
